<?xml version="1.0" encoding="UTF-8"?>
<svg id="tabs" xmlns="http://www.w3.org/2000/svg" xmlns:xlink="http://www.w3.org/1999/xlink" version="1.1" viewBox="0 0 806.9 274">
  <!-- Generator: Adobe Illustrator 29.3.1, SVG Export Plug-In . SVG Version: 2.1.0 Build 151)  -->
  <defs>
    <style>
      .st0 {
        fill: none;
      }

      .st1 {
        fill: #ffafc8;
      }

      .st2 {
        fill: #004cff;
      }

      .st3 {
        fill: #ff8c00;
      }

      .st4 {
        fill: #73d7ee;
      }

      .st5 {
        clip-path: url(#clippath-1);
      }

      .st6 {
        fill: #008026;
      }

      .st7 {
        fill: #fff;
      }

      .st8 {
        fill: #ffed00;
      }

      .st9 {
        fill: #e40303;
      }

      .st10 {
        fill: #732982;
      }

      .st11 {
        fill: #613915;
      }

      .st12 {
        clip-path: url(#clippath);
      }

      .st13 {
        fill: #171321;
      }
    </style>
    <clipPath id="clippath">
      <path class="st0" d="M141,46.9c-50,0-90,40.3-90,90s40.3,90,90,90,90-40.3,90-90-40.3-90-90-90ZM141,176.9c-22.1,0-40-17.9-40-40s17.9-40,40-40,40,17.9,40,40-17.9,40-40,40Z"/>
    </clipPath>
    <clipPath id="clippath-1">
      <polygon class="st0" points="230.9 18.6 230.6 187.5 50.8 187.5 51.1 18.6 230.9 18.6"/>
    </clipPath>
  </defs>
  <path class="st7" d="M0,50.4C0,22.8,22.4.4,50,.4h706.9c27.6,0,50,22.4,50,50v174c0,27.6-22.4,50-50,50H0V50.4Z"/>
  <g>
    <g class="st12">
      <g>
        <rect class="st9" x="200.7" y="63.1" width="30" height="240"/>
        <rect class="st3" x="170.7" y="63.1" width="30" height="240"/>
        <rect class="st8" x="141" y="62.9" width="30" height="240"/>
        <rect class="st6" x="111" y="62.9" width="30" height="240"/>
        <rect class="st2" x="81.1" y="62.9" width="30" height="240"/>
        <rect class="st7" x="98.5" y="-27.8" width="84.4" height="84.4" transform="translate(31.1 103.7) rotate(-45)"/>
        <rect class="st10" x="51.1" y="62.9" width="30" height="240"/>
        <g class="st5">
          <g>
            <path d="M-15.3-.5l156-156L296.7-.5l-156,156L-15.3-.5ZM140.7-133.3L8-.5l132.7,132.7L273.4-.5l-132.7-132.7Z"/>
            <path class="st11" d="M13.1,4.8l127.6-127.6L268.3,4.8l-127.6,127.6L13.1,4.8ZM140.7-99.5L36.4,4.8l104.3,104.3L245,4.8l-104.3-104.3h0Z"/>
            <path class="st4" d="M41.2,10l99.5-99.5L240.2,10l-99.5,99.5L41.2,10ZM140.7-66.2L64.5,10l76.2,76.2L216.9,10s-76.2-76.2-76.2-76.2Z"/>
            <path class="st1" d="M69.4,14.9l71.3-71.3L212,14.9l-71.3,71.3L69.4,14.9ZM140.7-33.1L92.7,14.9l48,48,48-48-48-48Z"/>
          </g>
        </g>
      </g>
    </g>
    <path class="st3" d="M168.6,131.2v-.2c0,0-7.9-20.3-7.9-20.3-.2-.4-.4-.7-.8-1s-.8-.3-1.2-.3c-.4,0-.8.2-1.2.4-.3.3-.6.6-.7,1.1l-5.2,16.1h-21.2l-5.2-16.1c-.1-.4-.4-.8-.7-1.1-.3-.3-.7-.4-1.2-.4-.4,0-.8,0-1.2.3-.4.2-.6.6-.8,1l-7.8,20.3v.2c-1.2,2.9-1.3,6.1-.5,9.1.9,3,2.7,5.7,5.2,7.5h0s0,0,0,0l11.8,8.9,5.9,4.4,3.6,2.7c.4.3.9.5,1.4.5s1-.2,1.4-.5l3.6-2.7,5.9-4.4,11.9-8.9h0c2.5-1.9,4.3-4.6,5.2-7.6s.7-6.2-.4-9.1h0Z"/>
  </g>
  <g>
    <path class="st13" d="M292,65.9h57.2c32.7,0,53.1,18.4,53.1,47.6s-20.8,47.6-53.5,47.6h-40.5v-24.9h39c16,0,26-8.8,26-22.8s-10-22.7-26-22.7h-25.8v120.6h-29.6V65.9h0Z"/>
    <path class="st13" d="M416.4,108.3h27.3v17.5h.3c3.8-12.3,11.6-18.3,25.1-18.3s6.2.2,8.5.3v24.2c-2.1-.2-7.5-.6-12.3-.6-11.8,0-20.6,8.2-20.6,23.8v56.2h-28.3v-103.1Z"/>
    <path class="st13" d="M489.8,78.9c0-8.5,7-15.3,15.9-15.3s15.8,6.8,15.8,15.3-7,15.3-15.9,15.3-15.9-6.8-15.9-15.3h0ZM491.6,108.3h28.3v103.1h-28.3v-103.1Z"/>
    <path class="st13" d="M535.9,159.8c0-31.7,18.1-53.6,44.4-53.6s23.9,5.3,30.5,16.5h.1v-56.7h28.3v145.5h-27.9v-15.8h-.1c-6,12-17.1,18-30.6,18-27,0-44.6-21.5-44.6-53.8ZM612.2,159.8c0-18.6-9.8-30.6-24.5-30.6s-23.3,11.1-23.3,30.6,9.2,30.7,23.3,30.7,24.5-12.1,24.5-30.7Z"/>
    <path class="st13" d="M655.1,159.9c0-31.4,20.9-54,50.5-54s50.6,22,50.6,53.4v7.6h-90.9v-18.2h77.2l-12.8,4.4c0-15.7-9.1-25.6-23.6-25.6s-23.5,9.9-23.5,25.6v12.4c0,16.2,9,26.9,24.7,26.9s19.2-5.3,21.8-13.3h26c-3.9,20.4-23.7,34.7-48.6,34.7s-51.5-22.5-51.5-53.8h0Z"/>
  </g>
</svg>